<svg xmlns="http://www.w3.org/2000/svg" viewBox="0 0 297.001 297.001" width="512" height="512"><g fill="#a5abc5"><path d="M181.951 221.679a8.026 8.026 0 0 1-5.674-2.35l-28.712-28.712a41.168 41.168 0 0 0-7.02 23.039c0 22.831 18.574 41.405 41.405 41.405 20.087 0 36.871-14.378 40.619-33.382h-40.618zm0-49.428a41.159 41.159 0 0 0-23.038 7.02l26.361 26.362h37.296c-3.746-19.004-20.531-33.382-40.619-33.382z"/><path d="M247.253 32.953H214.19v9.721c0 12.809-10.421 23.23-23.23 23.23h-84.919c-12.809 0-23.23-10.421-23.23-23.23v-9.721H49.748c-4.719 0-8.557 3.838-8.557 8.556v246.935c0 4.719 3.838 8.557 8.557 8.557h197.506c4.719 0 8.557-3.838 8.557-8.557V41.509c0-4.718-3.839-8.556-8.558-8.556zM66.12 90.3h82.38a8.023 8.023 0 1 1 0 16.046H66.12a8.023 8.023 0 1 1 0-16.046zm49.428 81.95H66.12a8.023 8.023 0 1 1 0-16.046h49.428a8.023 8.023 0 1 1 0 16.046zm0-32.952H66.12a8.023 8.023 0 1 1 0-16.046h49.428a8.023 8.023 0 1 1 0 16.046zm66.403 131.809c-31.678 0-57.451-25.773-57.451-57.451 0-31.679 25.773-57.452 57.451-57.452 31.679 0 57.452 25.773 57.452 57.452.001 31.678-25.772 57.451-57.452 57.451z"/><path d="M106.042 49.858h84.919a7.191 7.191 0 0 0 7.184-7.184V23.66a7.191 7.191 0 0 0-7.184-7.184h-25.983a8.023 8.023 0 0 1-8.023-8.023c0-4.661-3.792-8.453-8.453-8.453s-8.453 3.792-8.453 8.453a8.023 8.023 0 0 1-8.023 8.023h-25.983a7.191 7.191 0 0 0-7.184 7.184v19.014c-.002 3.962 3.22 7.184 7.183 7.184z"/></g></svg>