<svg xmlns="http://www.w3.org/2000/svg" width="512" height="512" viewBox="0 0 978 978"><path d="M939.3 298.6c-24.6-58.2-59.899-110.5-104.8-155.4C789.7 98.3 737.101 63 678.9 38.4 618.7 13 554.7 0 488.7 0 422.9 0 359 13 298.8 38.4 240.6 63 188.3 98.3 143.4 143.2c-44.9 44.9-80.2 97.2-104.8 155.4C13.1 358.9.2 423 .2 489s12.9 130 38.4 190.4c24.6 58.2 59.9 110.5 104.8 155.4 44.9 44.9 97.2 80.2 155.399 104.8C359 965 422.8 978 488.7 978c66-.1 130-13 190.2-38.4 58.2-24.6 110.7-59.899 155.6-104.8 44.9-44.899 80.2-97.2 104.9-155.399C964.8 619 977.8 555 977.8 489s-13-130.1-38.5-190.4zM642.5 108.7c2 .8 3.9 1.6 5.9 2.4 48.8 20.6 92.7 50.2 130.3 87.9 37.7 37.7 67.2 81.5 87.9 130.3.3.8.699 1.6 1 2.4L663 424.5c-2.7-7.4-6-14.7-9.7-21.7-21.5-41-59.1-73.7-102.8-89-.6-.2-1.1-.4-1.7-.6-.1 0 93.7-204.5 93.7-204.5zM111.4 329.4c20.6-48.8 50.2-92.7 87.9-130.3 37.7-37.7 81.5-67.2 130.3-87.9 2-.8 3.899-1.6 5.899-2.4l93.7 204.5c-15.6 5.9-30.4 12.8-44.3 22.2-13.4 9.2-25.601 20.1-36.2 32.3-9.3 10.7-17.4 22.5-23.9 35-3.699 7-6.899 14.3-9.699 21.7l-204.6-92.8c.2-.7.5-1.5.9-2.3zm224 539.8c-1.9-.8-3.9-1.601-5.8-2.4-48.8-20.6-92.7-50.2-130.3-87.899-37.7-37.7-67.2-81.5-87.9-130.301-.7-1.6-1.3-3.199-2-4.8l204.3-94c-.4.2 5.1 13 5.6 14.2 7.601 17.3 18 33.5 30.601 47.7l.6.6c11 12.3 23.5 23.101 37.3 32.101 12.601 8.3 26.2 15 40.4 20-.1-.001-92.801 204.799-92.801 204.799zm75.8-301.8c-21-20.801-32.5-48.601-32.6-78.2-.1-29.6 11.4-57.4 32.2-78.3 20.801-20.9 48.5-32.5 78-32.601 30 .1 57.5 11.7 78.301 32.601 20.8 21 32.399 48.8 32.3 78.3-.101 29.6-11.9 57.3-32.8 78.2-20.9 20.699-47.9 32.1-77.9 32.199C459.4 599.5 431.9 588.1 411.2 567.4zm455.401 81.2C846 697.4 816.4 741.3 778.7 778.9c-37.7 37.7-81.5 67.2-130.3 87.9-1.9.8-3.9 1.601-5.8 2.4l-92.7-204.8c3.7-1.801 7.899-2.9 11.7-4.5 4-1.7 8-3.601 11.899-5.601 7.8-4 15.3-8.6 22.5-13.7 14.9-10.5 28.3-23.3 39.5-37.699a192.17 192.17 0 0 0 20.9-33.801c.6-1.199 1.2-2.5 1.7-3.699 2.3-5.101 4.399-10.301 6.199-15.601l204.301 94c-.699 1.601-1.299 3.201-1.998 4.801z" fill="#a5abc5"/></svg>