<svg xmlns="http://www.w3.org/2000/svg" viewBox="0 0 490.1 490.1" width="512" height="512"><path d="M418.4 418.4c-95.6 95.6-251.1 95.6-346.7 0s-95.6-251.1 0-346.7 251.1-95.6 346.7 0 95.6 251.1 0 346.7zM115.8 115.8c-71.2 71.2-71.2 187.1 0 258.3s187.1 71.2 258.3 0 71.2-187.1 0-258.3-187-71.2-258.3 0z" fill="#a5abc5"/><path d="M334.1 170.6c4-9.1-5.2-18.3-14.3-14.3l-91 51.4c-9.1 5.2-16.7 12.7-21.9 21.8l-51.2 89.9c-4 9.1 5.2 18.3 14.3 14.3l90.8-51.4c9.1-5.1 16.6-12.6 21.8-21.7l51.5-90z" fill="#a5abc5"/></svg>