<svg xmlns="http://www.w3.org/2000/svg" viewBox="0 0 90 90" width="512" height="512"><path d="M81.114 30.146C73.196 11.725 60.456-2.306 54.009.316 43.062 4.765 60.53 26.133 6.774 47.984c-4.643 1.887-5.82 9.441-3.877 13.957 1.939 4.515 8.291 9.01 12.936 7.123.803-.326 3.754-1.275 3.754-1.275 3.316 4.45 6.787 1.811 8.018 4.639 1.479 3.398 4.697 10.785 5.789 13.298 1.096 2.511 3.576 4.837 5.377 4.153l10.25-3.901c2.338-.89 2.896-2.974 2.182-4.619-.771-1.772-3.932-2.292-4.832-4.36-.902-2.068-3.848-8.696-4.695-10.785-1.152-2.841 1.295-5.152 4.85-5.522 24.467-2.55 29.041 12.561 37.371 9.173 6.446-2.622 5.133-21.297-2.783-39.719zM78.358 60.03c-1.432.582-11.061-7.013-17.215-21.334-6.152-14.318-5.379-27.408-3.949-27.989 1.43-.582 10.822 8.58 16.975 22.898 6.152 14.318 5.621 25.843 4.189 26.425z" fill="#a5abc5"/></svg>